<svg width="96" height="96" xmlns="http://www.w3.org/2000/svg" xmlns:xlink="http://www.w3.org/1999/xlink" xml:space="preserve" overflow="hidden"><defs><clipPath id="clip0"><rect x="0" y="0" width="96" height="96"/></clipPath></defs><g clip-path="url(#clip0)"><path d="M33.586 34 13.586 34 13.586 14 15.586 14 15.586 29.688C15.586 29.693 15.59 29.697 15.595 29.697 15.6 29.697 15.604 29.693 15.604 29.688 25.7206 12.572 47.797 6.8978 64.913 17.0144 82.0291 27.131 87.7032 49.2074 77.5866 66.3234 67.47 83.4394 45.3936 89.1136 28.2776 78.997 25.9805 77.6393 23.8415 76.0304 21.9 74.2L23.272 72.745C36.9353 85.6323 58.4587 85.0033 71.346 71.34 84.2334 57.6768 83.6043 36.1533 69.9411 23.266 56.2778 10.3787 34.7543 11.0077 21.867 24.671 19.7983 26.8642 18.0305 29.3227 16.61 31.982 16.6072 31.9868 16.6089 31.9929 16.6136 31.9957 16.6153 31.9966 16.6171 31.9971 16.619 31.997L33.586 31.997Z"/></g></svg>