<svg width="96" height="96" xmlns="http://www.w3.org/2000/svg" xmlns:xlink="http://www.w3.org/1999/xlink" xml:space="preserve" overflow="hidden"><defs><clipPath id="clip0"><rect x="0" y="0" width="96" height="96"/></clipPath></defs><g clip-path="url(#clip0)"><path d="M34 24 40 24 40 39 34 39Z"/><path d="M66 43 30 43 30 20 66 20 66 43ZM48 69C42.5 69 38 64.5 38 59 38 53.5 42.5 49 48 49 53.5 49 58 53.5 58 59 58 64.5 53.5 69 48 69ZM78 14 66 14 30 14 24 14 14 24 14 78C14 80.2 15.8 82 18 82L78 82C80.2 82 82 80.2 82 78L82 18C82 15.8 80.2 14 78 14Z"/><path d="M45 56 51 56 51 62 45 62Z"/></g></svg>